<svg width="48" height="48" viewBox="0 0 48 48" fill="none" xmlns="http://www.w3.org/2000/svg">
<g clip-path="url(#clip0_1_11)">
<mask id="mask0_1_11" style="mask-type:luminance" maskUnits="userSpaceOnUse" x="0" y="0" width="48" height="48">
<path d="M48 0H0V48H48V0Z" fill="white"/>
</mask>
<g mask="url(#mask0_1_11)">
<path d="M43.1997 15.4452V6.40044C43.1997 5.5168 42.4834 4.80042 41.5998 4.80042H37.5998C36.7161 4.80042 35.9997 5.5168 35.9997 6.40044V9.47244L25.0286 0.37084C24.4315 -0.123613 23.5672 -0.123613 22.9701 0.37084L0.582956 18.9444C0.247028 19.223 0.0384168 19.6259 0.00479491 20.061C-0.0288269 20.4961 0.115414 20.9263 0.404554 21.2532L2.39976 23.5044C2.97551 24.1611 3.97048 24.2375 4.63977 23.6764L4.79974 23.5388V46.4002C4.79974 47.2839 5.51612 48.0004 6.39975 48.0004H41.5998C42.4834 48.0004 43.1997 47.2839 43.1997 46.4002V23.5388L43.3653 23.6764C44.0335 24.2351 45.0253 24.1588 45.5996 23.5044L47.5916 21.2532C47.8813 20.9266 48.0262 20.4964 47.9926 20.0612C47.959 19.6259 47.7504 19.2229 47.414 18.9444L43.1997 15.4452ZM37.5998 6.40044H41.5998V14.118L37.5998 10.8004V6.40044ZM41.5998 46.4002H6.39975V22.2116L23.9997 7.61082L41.5998 22.2116V46.4002ZM44.4039 22.4436C44.3991 22.4481 44.3917 22.4481 44.3869 22.4436L24.5109 5.95565C24.2146 5.70945 23.7849 5.70945 23.4885 5.95565L3.59976 22.4436L1.60455 20.1756L24.0078 1.60044L46.3999 20.1924L44.4039 22.4436Z" fill="#FF4136"/>
<path d="M20.7999 16C20.8031 16.7553 21.0757 17.4846 21.5687 18.0568L17.0615 24.4465L12.3895 23.6224C11.0846 23.393 9.84064 24.2641 9.61024 25.5688L7.66384 36.5992C7.43667 37.904 8.30721 39.1469 9.61107 39.3793L35.6111 43.9632C35.7498 43.9876 35.8903 43.9998 36.0311 44.0003C37.194 43.9977 38.1879 43.1614 38.3895 42.016L40.3359 30.9856C40.5648 29.6808 39.6933 28.4372 38.3887 28.2073L32.9142 27.2416L26.4342 18.056C26.9262 17.4838 27.1977 16.7547 27.1998 16C27.1998 14.2327 25.7672 12.8 23.9999 12.8C22.2325 12.8 20.7999 14.2327 20.7999 16ZM38.6271 30.1112C38.7496 30.2846 38.7974 30.4999 38.7599 30.7088L36.8143 41.7392C36.7375 42.1741 36.3228 42.4646 35.8879 42.388L9.88785 37.804C9.45441 37.7268 9.1648 37.3139 9.23985 36.88L11.1855 25.8496C11.2213 25.6404 11.3398 25.4545 11.5143 25.3336C11.688 25.2119 11.9029 25.1642 12.1119 25.2008L38.1119 29.7865C38.3202 29.8213 38.5058 29.9383 38.6271 30.1112ZM18.8031 24.7513L22.8719 18.9824C23.5965 19.2694 24.4032 19.2694 25.1279 18.9824L30.6774 26.8448L18.8031 24.7513ZM25.5999 16C25.5999 16.8837 24.8835 17.6 23.9999 17.6C23.1162 17.6 22.3998 16.8837 22.3998 16C22.3998 15.1164 23.1162 14.4001 23.9999 14.4001C24.8835 14.4001 25.5999 15.1164 25.5999 16Z" fill="#FF4136"/>
</g>
</g>
<defs>
<clipPath id="clip0_1_11">
<rect width="48" height="48" fill="white"/>
</clipPath>
</defs>
</svg>
